<svg width="24" height="24" viewBox="0 0 24 24" fill="none" xmlns="http://www.w3.org/2000/svg">
<path fill-rule="evenodd" clip-rule="evenodd" d="M19.5757 20.4243L13.5757 14.4243L14.4243 13.5757L20.4243 19.5757L19.5757 20.4243Z" fill="black"/>
<path fill-rule="evenodd" clip-rule="evenodd" d="M9.5 14.8C12.4271 14.8 14.8 12.4271 14.8 9.5C14.8 6.57289 12.4271 4.2 9.5 4.2C6.57289 4.2 4.2 6.57289 4.2 9.5C4.2 12.4271 6.57289 14.8 9.5 14.8ZM9.5 16C13.0899 16 16 13.0899 16 9.5C16 5.91015 13.0899 3 9.5 3C5.91015 3 3 5.91015 3 9.5C3 13.0899 5.91015 16 9.5 16Z" fill="black"/>
</svg>
